<?xml version="1.0" encoding="UTF-8"?>
<svg width="128" height="128" viewBox="0 0 128 128" fill="none" xmlns="http://www.w3.org/2000/svg">
  <circle cx="64" cy="64" r="64" fill="#F59E0B"/>
  <!-- 猫の耳 -->
  <path d="M40 40L50 55H30L40 40Z" fill="white"/>
  <path d="M88 40L98 55H78L88 40Z" fill="white"/>
  <!-- 猫の顔 -->
  <circle cx="64" cy="70" r="30" fill="white"/>
  <!-- 目 -->
  <ellipse cx="50" cy="65" rx="4" ry="6" fill="#111827"/>
  <ellipse cx="78" cy="65" rx="4" ry="6" fill="#111827"/>
  <!-- 鼻 -->
  <path d="M62 75L64 78L66 75L64 76L62 75Z" fill="#111827"/>
  <!-- 口 -->
  <path d="M58 80C60 83 68 83 70 80" stroke="#111827" stroke-width="2" stroke-linecap="round"/>
  <!-- ヒゲ -->
  <path d="M40 75L55 73M40 80L55 78M40 85L55 83" stroke="#111827" stroke-width="1"/>
  <path d="M88 75L73 73M88 80L73 78M88 85L73 83" stroke="#111827" stroke-width="1"/>
</svg> 