<?xml version="1.0" encoding="UTF-8"?>
<svg width="128" height="128" viewBox="0 0 128 128" fill="none" xmlns="http://www.w3.org/2000/svg">
  <circle cx="64" cy="64" r="64" fill="#8B5CF6"/>
  <!-- うさぎの耳 -->
  <path d="M45 20L50 60H40L45 20Z" fill="white"/>
  <path d="M83 20L88 60H78L83 20Z" fill="white"/>
  <!-- うさぎの顔 -->
  <circle cx="64" cy="75" r="25" fill="white"/>
  <!-- 目 -->
  <ellipse cx="54" cy="70" rx="3" ry="4" fill="#111827"/>
  <ellipse cx="74" cy="70" rx="3" ry="4" fill="#111827"/>
  <!-- 鼻 -->
  <circle cx="64" cy="77" r="2" fill="#FF9999"/>
  <!-- 口 -->
  <path d="M60 82L64 85L68 82" stroke="#111827" stroke-width="1.5" stroke-linecap="round"/>
  <!-- ヒゲ -->
  <path d="M45 77L58 75M45 80L58 80M45 83L58 85" stroke="#111827" stroke-width="0.5"/>
  <path d="M83 77L70 75M83 80L70 80M83 83L70 85" stroke="#111827" stroke-width="0.5"/>
</svg> 