<?xml version="1.0" encoding="UTF-8"?>
<svg width="128" height="128" viewBox="0 0 128 128" fill="none" xmlns="http://www.w3.org/2000/svg">
  <circle cx="64" cy="64" r="64" fill="#1E40AF"/>
  <!-- ペンギンの体 -->
  <path d="M44 50C44 50 64 40 84 50C84 50 94 90 64 90C34 90 44 50 44 50Z" fill="#111827"/>
  <!-- ペンギンの顔 -->
  <circle cx="64" cy="60" r="25" fill="white"/>
  <!-- 目 -->
  <circle cx="54" cy="55" r="4" fill="#111827"/>
  <circle cx="74" cy="55" r="4" fill="#111827"/>
  <!-- くちばし -->
  <path d="M59 65L64 70L69 65L64 68L59 65Z" fill="#F97316"/>
  <!-- 胸 -->
  <path d="M54 70C54 70 64 80 74 70C74 70 74 85 64 85C54 85 54 70 54 70Z" fill="white"/>
</svg> 